<svg xmlns="http://www.w3.org/2000/svg" version="1.0" width="500.000000pt" height="500.000000pt" viewBox="0 0 500.000000 500.000000" preserveAspectRatio="xMidYMid meet">

<g transform="translate(0.000000,500.000000) scale(0.100000,-0.100000)" fill="#ff5757" stroke="none">
<path d="M658 4179 c-17 -9 -18 -97 -18 -1624 0 -1586 0 -1614 19 -1625 25 -13 560 -13 581 0 13 8 16 127 20 936 l5 928 443 -860 c244 -472 451 -865 460 -872 12 -9 82 -12 271 -12 141 0 261 4 267 8 7 4 202 387 435 852 l424 845 3 -522 2 -523 305 0 305 0 0 1230 0 1230 -26 10 c-32 13 -534 13 -566 1 -20 -7 -123 -221 -584 -1210 -307 -660 -562 -1200 -567 -1198 -4 1 -271 540 -592 1197 -322 657 -593 1201 -602 1208 -21 15 -558 17 -585 1z"/>
</g>
</svg>