<svg xmlns="http://www.w3.org/2000/svg" version="1.0" width="750.000000pt" height="300.000000pt" viewBox="0 0 750.000000 300.000000" preserveAspectRatio="xMidYMid meet">

<g transform="translate(0.000000,300.000000) scale(0.100000,-0.100000)" fill="#ffffff" stroke="none">
<path d="M258 2244 c-5 -4 -8 -218 -8 -476 l0 -468 203 0 c128 1 231 6 281 15 238 42 386 219 386 460 0 221 -128 391 -341 452 -59 16 -508 32 -521 17z m484 -218 c52 -22 105 -71 131 -120 18 -33 22 -58 22 -131 0 -105 -18 -148 -84 -208 -54 -48 -121 -67 -243 -67 l-98 0 0 276 0 276 118 -4 c77 -4 130 -11 154 -22z"/>
<path d="M1577 2243 c-4 -3 -7 -217 -7 -475 l0 -468 315 0 315 0 0 95 0 95 -210 0 -210 0 0 100 0 100 185 0 185 0 0 90 0 90 -185 0 -185 0 0 95 0 95 205 0 205 0 0 95 0 95 -303 0 c-167 0 -307 -3 -310 -7z"/>
<path d="M2570 2238 c1 -7 81 -220 178 -473 l177 -460 105 -3 106 -3 177 463 c97 255 177 469 177 476 0 9 -29 12 -109 12 l-109 0 -30 -77 c-16 -43 -69 -185 -117 -316 -49 -130 -91 -235 -94 -231 -3 3 -58 143 -121 312 l-116 307 -112 3 c-86 2 -112 0 -112 -10z"/>
<path d="M3860 2120 l0 -110 1715 0 1715 0 0 110 0 110 -1715 0 -1715 0 0 -110z"/>
<path d="M4103 1750 c-156 -33 -243 -130 -243 -270 0 -76 22 -130 70 -178 46 -46 112 -77 240 -112 122 -33 156 -47 184 -78 27 -31 24 -89 -8 -121 -22 -22 -36 -26 -100 -29 -56 -3 -83 0 -111 14 -40 19 -75 66 -75 102 0 21 -3 22 -106 22 l-107 0 6 -49 c13 -107 88 -200 196 -243 76 -30 269 -33 348 -5 116 41 182 120 190 230 14 166 -76 257 -319 321 -164 43 -202 71 -196 144 5 55 50 82 138 82 85 0 128 -25 150 -88 l14 -42 98 0 98 0 0 38 c0 92 -89 201 -196 242 -66 25 -201 35 -271 20z"/>
<path d="M5040 1271 l0 -471 110 0 110 0 0 129 0 129 133 4 c102 4 144 9 185 26 81 31 136 82 174 160 30 60 33 75 33 153 -1 77 -5 94 -33 152 -38 76 -93 127 -174 160 -48 19 -76 22 -295 25 l-243 4 0 -471z m449 261 c74 -37 102 -131 63 -209 -29 -57 -74 -75 -194 -81 l-98 -5 0 157 0 156 98 0 c73 0 106 -4 131 -18z"/>
<path d="M6220 1270 l0 -470 105 0 105 0 2 281 3 280 113 -165 113 -166 74 0 74 0 113 166 113 166 3 -281 2 -281 105 0 105 0 0 470 0 471 -92 -3 -91 -3 -165 -242 -166 -242 -43 62 c-23 34 -98 143 -166 242 l-123 180 -92 3 -92 3 0 -471z"/>
<path d="M250 905 l0 -115 1650 0 1651 0 -3 113 -3 112 -1647 3 -1648 2 0 -115z"/>
</g>
</svg>